<svg width="16" height="16" viewBox="0 0 16 16" fill="none" xmlns="http://www.w3.org/2000/svg">
<path fill-rule="evenodd" clip-rule="evenodd" d="M5.3335 9.00065C5.3335 8.63246 5.63197 8.33398 6.00016 8.33398H10.0002C10.3684 8.33398 10.6668 8.63246 10.6668 9.00065C10.6668 9.36884 10.3684 9.66732 10.0002 9.66732H6.00016C5.63197 9.66732 5.3335 9.36884 5.3335 9.00065Z" fill="#424551"/>
<path fill-rule="evenodd" clip-rule="evenodd" d="M5.3335 11.5007C5.3335 11.1325 5.63197 10.834 6.00016 10.834H8.00016C8.36835 10.834 8.66683 11.1325 8.66683 11.5007C8.66683 11.8688 8.36835 12.1673 8.00016 12.1673H6.00016C5.63197 12.1673 5.3335 11.8688 5.3335 11.5007Z" fill="#424551"/>
<path fill-rule="evenodd" clip-rule="evenodd" d="M6.02877 1.02925C6.1538 0.904222 6.32337 0.833984 6.50018 0.833984H11.0002C12.4729 0.833984 13.6668 2.02789 13.6668 3.50065L13.6668 12.5007C13.6668 13.9734 12.4729 15.1673 11.0002 15.1673H5.00016C3.5274 15.1673 2.33349 13.9734 2.3335 12.5006L2.33351 5.00065C2.33351 4.82384 2.40375 4.65427 2.52877 4.52925L6.02877 1.02925ZM6.33349 2.61015V4.83398H4.10965L6.33349 2.61015ZM3.66684 6.16732L3.66683 12.5006C3.66683 13.237 4.26378 13.834 5.00016 13.834H11.0002C11.7366 13.834 12.3335 13.237 12.3335 12.5007L12.3335 3.50065C12.3335 2.76427 11.7366 2.16732 11.0002 2.16732H7.66682V5.50065C7.66682 5.86884 7.36835 6.16732 7.00016 6.16732H3.66684Z" fill="#424551"/>
</svg>
