<svg width="15" height="15" viewBox="0 0 15 15" fill="none" xmlns="http://www.w3.org/2000/svg">
<path d="M8 3.66667C8 3.29848 7.70152 3 7.33333 3C6.96514 3 6.66667 3.29848 6.66667 3.66667V7.33333C6.66667 7.51014 6.7369 7.67971 6.86193 7.80474L8.86193 9.80474C9.12228 10.0651 9.54439 10.0651 9.80474 9.80474C10.0651 9.54439 10.0651 9.12228 9.80474 8.86193L8 7.05719V3.66667Z" fill="#787A80"/>
<path fill-rule="evenodd" clip-rule="evenodd" d="M7.33333 0C3.28324 0 0 3.28324 0 7.33333C0 11.3834 3.28324 14.6667 7.33333 14.6667C11.3834 14.6667 14.6667 11.3834 14.6667 7.33333C14.6667 3.28324 11.3834 0 7.33333 0ZM1.33333 7.33333C1.33333 4.01962 4.01962 1.33333 7.33333 1.33333C10.647 1.33333 13.3333 4.01962 13.3333 7.33333C13.3333 10.647 10.647 13.3333 7.33333 13.3333C4.01962 13.3333 1.33333 10.647 1.33333 7.33333Z" fill="#787A80"/>
</svg>
