<svg width="17" height="18" viewBox="0 0 17 18" fill="none" xmlns="http://www.w3.org/2000/svg">
<path fill-rule="evenodd" clip-rule="evenodd" d="M8.3332 1.66667C6.72237 1.66667 5.41654 2.9725 5.41654 4.58333C5.41654 6.19416 6.72237 7.5 8.3332 7.5C9.94403 7.5 11.2499 6.19416 11.2499 4.58333C11.2499 2.9725 9.94403 1.66667 8.3332 1.66667ZM3.74987 4.58333C3.74987 2.05203 5.8019 0 8.3332 0C10.8645 0 12.9165 2.05203 12.9165 4.58333C12.9165 7.11464 10.8645 9.16667 8.3332 9.16667C5.8019 9.16667 3.74987 7.11464 3.74987 4.58333Z" fill="#424551"/>
<path fill-rule="evenodd" clip-rule="evenodd" d="M3.41992 11.6667C2.84215 11.6667 2.39056 11.948 2.20725 12.3522C1.95354 12.9116 1.72378 13.5777 1.66957 14.2093C1.64533 14.4917 1.76307 14.6998 1.9253 14.8006C2.78294 15.3333 4.7702 16.25 8.3332 16.25C11.8962 16.25 13.8835 15.3333 14.7411 14.8006C14.9033 14.6998 15.0211 14.4917 14.9968 14.2093C14.9426 13.5777 14.7129 12.9116 14.4592 12.3522C14.2758 11.948 13.8243 11.6667 13.2465 11.6667H3.41992ZM0.689393 11.6638C1.19601 10.5467 2.32729 10 3.41992 10H13.2465C14.3391 10 15.4704 10.5467 15.977 11.6638C16.268 12.3054 16.5802 13.1679 16.6574 14.0668C16.7276 14.8853 16.3874 15.7399 15.6206 16.2163C14.4926 16.917 12.1995 17.9167 8.3332 17.9167C4.46687 17.9167 2.17379 16.917 1.04584 16.2163C0.278955 15.7399 -0.0612453 14.8853 0.00900837 14.0668C0.0861565 13.1679 0.398405 12.3054 0.689393 11.6638Z" fill="#424551"/>
</svg>
