<svg width="15" height="15" viewBox="0 0 15 15" fill="none" xmlns="http://www.w3.org/2000/svg">
<path fill-rule="evenodd" clip-rule="evenodd" d="M10.0452 6.27401C10.7434 6.80766 10.7434 7.85906 10.0452 8.39271L6.9919 10.7263C6.11451 11.3969 4.84891 10.7713 4.84891 9.66698V4.99974C4.84891 3.89542 6.11451 3.26979 6.9919 3.94038L10.0452 6.27401ZM9.23553 7.33336L6.18224 4.99974L6.18224 9.66698L9.23553 7.33336Z" fill="#424551"/>
<path fill-rule="evenodd" clip-rule="evenodd" d="M7.33333 1.33333C4.01962 1.33333 1.33333 4.01962 1.33333 7.33333C1.33333 10.647 4.01962 13.3333 7.33333 13.3333C10.647 13.3333 13.3333 10.647 13.3333 7.33333C13.3333 4.01962 10.647 1.33333 7.33333 1.33333ZM0 7.33333C0 3.28324 3.28324 0 7.33333 0C11.3834 0 14.6667 3.28324 14.6667 7.33333C14.6667 11.3834 11.3834 14.6667 7.33333 14.6667C3.28324 14.6667 0 11.3834 0 7.33333Z" fill="#424551"/>
</svg>
